# Blender v2.67 (sub 0) OBJ File: 'researchTable.blend'
# www.blender.org
g Table_Cube
v 7.500000 0.000000 -0.500000
v 7.500000 7.000000 -0.500000
v 7.500000 0.000000 -1.000000
v 7.500000 7.000000 -1.000000
v 7.000000 0.000000 -0.500000
v 7.000000 7.000000 -0.500000
v 7.000000 7.000000 -1.000000
v 7.000000 0.000000 -1.000000
v 0.500000 0.000000 -0.500000
v 0.500000 7.000000 -0.500000
v 1.000000 0.000000 -0.500000
v 1.000000 7.000000 -0.500000
v 0.500000 0.000000 -1.000000
v 0.500000 7.000000 -1.000000
v 1.000000 7.000000 -1.000000
v 1.000000 0.000000 -1.000000
v 0.500000 0.000000 -7.500000
v 0.500000 7.000000 -7.500000
v 0.500000 0.000000 -7.000000
v 0.500000 7.000000 -7.000000
v 1.000000 0.000000 -7.500000
v 1.000000 7.000000 -7.500000
v 1.000000 7.000000 -7.000000
v 1.000000 0.000000 -7.000000
v 7.500000 0.000000 -7.500000
v 7.500000 7.000000 -7.500000
v 7.000000 0.000000 -7.500000
v 7.000000 7.000000 -7.500000
v 7.500000 0.000000 -7.000000
v 7.500000 7.000000 -7.000000
v 7.000000 7.000000 -7.000000
v 7.000000 0.000000 -7.000000
v 7.500000 5.000000 -0.500000
v 7.500000 4.500000 -0.500000
v 7.500000 5.000000 -1.000000
v 7.500000 4.500000 -1.000000
v 7.000000 5.000000 -0.500000
v 7.000000 4.500000 -0.500000
v 0.500000 5.000000 -0.500000
v 0.500000 4.500000 -0.500000
v 1.000000 4.500000 -0.500000
v 0.500000 5.000000 -1.000000
v 0.500000 4.500000 -1.000000
v 0.500000 5.000000 -7.500000
v 0.500000 4.500000 -7.500000
v 0.500000 5.000000 -7.000000
v 1.000000 5.000000 -7.500000
v 1.000000 4.500000 -7.500000
v 7.500000 5.000000 -7.500000
v 7.500000 4.500000 -7.500000
v 7.000000 5.000000 -7.500000
v 1.000000 4.500000 -7.000000
v 0.500000 4.500000 -7.000000
v 7.000000 4.500000 -7.500000
v 7.500000 4.500000 -7.000000
v 7.000000 5.000000 -7.000000
v 7.000000 4.500000 -1.000000
v 1.000000 5.000000 -0.500000
v 1.000000 5.000000 -1.000000
v 1.000000 4.500000 -1.000000
v 7.000000 5.000000 -1.000000
v 7.000000 4.500000 -7.000000
v 1.000000 5.000000 -7.000000
v 7.500000 5.000000 -7.000000
v 7.750000 8.000000 -0.250000
v 7.750000 7.750000 0.000000
v 8.000000 7.750000 -0.250000
v 8.000000 7.000000 -0.250000
v 7.750000 7.000000 0.000000
v 7.750000 7.000000 -0.250000
v 0.250000 8.000000 -0.250000
v 0.000000 7.750000 -0.250000
v 0.250000 7.750000 0.000000
v 0.250000 7.000000 0.000000
v 0.000000 7.000000 -0.250000
v 0.250000 7.000000 -0.250000
v 0.250000 8.000000 -7.750000
v 0.250000 7.750000 -8.000000
v 0.000000 7.750000 -7.750000
v 0.000000 7.000000 -7.750000
v 0.250000 7.000000 -8.000000
v 0.250000 7.000000 -7.750000
v 7.750000 8.000000 -7.750000
v 8.000000 7.750000 -7.750000
v 7.750000 7.750000 -8.000000
v 7.750000 7.000000 -8.000000
v 8.000000 7.000000 -7.750000
v 7.750000 7.000000 -7.750000
vt 0.062500 0.328125
vt 0.062500 0.453125
vt 0.031250 0.453125
vt 0.968750 0.437500
vt 0.968750 0.468750
vt 0.937500 0.468750
vt 0.468750 0.328125
vt 0.468750 0.453125
vt 0.437500 0.453125
vt 0.562500 0.468750
vt 0.531250 0.468750
vt 0.531250 0.437500
vt 0.437500 0.328125
vt 0.031250 0.328125
vt 0.531250 0.062500
vt 0.531250 0.031250
vt 0.562500 0.031250
vt 0.937500 0.031250
vt 0.968750 0.031250
vt 0.968750 0.062500
vt 0.062500 0.015625
vt 0.062500 0.296875
vt 0.031250 0.296875
vt 0.468750 0.015625
vt 0.468750 0.296875
vt 0.437500 0.296875
vt 0.437500 0.015625
vt 0.406250 0.453125
vt 0.937500 0.062500
vt 0.562500 0.062500
vt 0.562500 0.437500
vt 0.406250 0.296875
vt 0.031250 0.015625
vt 0.093750 0.015625
vt 0.937500 0.437500
vt 0.093750 0.296875
vt 0.093750 0.328125
vt 0.406250 0.015625
vt 0.406250 0.328125
vt 0.093750 0.453125
vt 0.484375 0.515625
vt 0.484375 0.500000
vt 0.500000 0.515625
vt 1.000000 0.515625
vt 0.984375 0.500000
vt 0.984375 0.515625
vt 0.015625 0.515625
vt 0.000000 0.515625
vt 0.015625 0.500000
vt 0.515625 0.500000
vt 0.515625 0.515625
vt 0.015625 0.984375
vt 0.015625 1.000000
vt 0.000000 0.984375
vt 0.500000 0.984375
vt 0.515625 1.000000
vt 0.515625 0.984375
vt 0.484375 0.984375
vt 0.484375 1.000000
vt 0.984375 1.000000
vt 1.000000 0.984375
vt 0.984375 0.984375
vt 0.500000 0.453125
vt 0.500000 0.500000
vt 0.015625 0.453125
vt 0.000000 0.453125
vt 0.484375 0.453125
vt 0.000000 0.500000
vn 1.000000 0.000000 0.000000
vn 0.000000 -1.000000 0.000000
vn -0.000000 0.000000 1.000000
vn -1.000000 0.000000 0.000000
vn -0.000000 -0.000000 -1.000000
vn 0.000000 1.000000 -0.000000
vn 0.577350 0.577350 0.577350
vn -0.577350 0.577350 0.577350
vn -0.577350 0.577350 -0.577350
vn 0.577350 0.577350 -0.577350
vn 0.707107 0.000000 0.707107
vn -0.707107 0.000000 0.707107
vn -0.707107 -0.000000 -0.707107
vn 0.707107 0.000000 -0.707107
vn 0.707107 0.707107 -0.000000
vn -0.000000 0.707107 0.707107
vn -0.707107 0.707107 0.000000
vn 0.000000 0.707107 -0.707107
s off
f 35/1/1 4/2/1 2/3/1
f 3/4/2 1/5/2 5/6/2
f 33/7/3 2/8/3 6/9/3
f 11/10/2 9/11/2 13/12/2
f 39/7/4 10/8/4 42/13/4
f 46/1/4 20/2/4 44/14/4
f 19/15/2 17/16/2 21/17/2
f 44/7/5 18/8/5 22/9/5
f 51/1/5 28/2/5 26/3/5
f 27/18/2 25/19/2 29/20/2
f 3/21/1 36/22/1 34/23/1
f 36/22/1 35/1/1 33/14/1
f 1/24/3 34/25/3 38/26/3
f 34/25/3 33/7/3 37/13/3
f 11/21/3 41/22/3 40/23/3
f 9/24/4 40/25/4 13/27/4
f 40/25/4 39/7/4 43/26/4
f 50/25/1 49/7/1 64/13/1
f 64/13/3 30/9/3 31/28/3
f 17/24/5 45/25/5 48/26/5
f 45/25/5 44/7/5 47/13/5
f 57/29/2 38/18/2 41/17/2
f 49/7/1 26/8/1 30/9/1
f 43/26/4 42/13/4 53/22/4
f 42/15/6 59/30/6 63/31/6
f 21/27/1 48/26/1 52/32/1
f 53/22/4 46/1/4 45/23/4
f 37/18/6 61/29/6 59/30/6
f 19/21/4 53/22/4 17/33/4
f 35/1/1 36/22/1 55/26/1
f 53/22/3 19/21/3 24/34/3
f 61/29/6 35/20/6 64/4/6
f 36/20/2 57/29/2 62/35/2
f 63/31/6 59/30/6 61/29/6
f 54/22/4 27/21/4 62/36/4
f 29/27/3 55/26/3 62/32/3
f 4/2/5 35/1/5 61/37/5
f 58/1/3 12/2/3 10/3/3
f 42/13/5 14/9/5 15/28/5
f 41/22/1 11/21/1 16/34/1
f 47/13/1 22/9/1 23/28/1
f 54/6/2 62/35/2 52/31/2
f 5/27/4 38/26/4 8/38/4
f 51/1/5 54/22/5 47/13/5
f 41/22/3 58/1/3 39/14/3
f 13/27/5 43/26/5 60/32/5
f 60/30/2 43/15/2 53/12/2
f 12/2/1 58/1/1 59/37/1
f 36/22/5 3/21/5 8/34/5
f 20/2/3 46/1/3 63/37/3
f 37/13/4 6/9/4 61/39/4
f 27/21/5 54/22/5 50/23/5
f 54/22/5 51/1/5 49/14/5
f 25/24/1 50/25/1 55/26/1
f 28/2/4 51/1/4 31/40/4
f 60/30/2 52/31/2 62/35/2
f 38/26/3 37/13/3 58/1/3
f 56/35/6 51/6/6 47/10/6
f 65/41/7 66/42/7 67/43/7
f 68/44/2 69/45/2 70/46/2
f 71/47/8 72/48/8 73/49/8
f 74/50/2 75/43/2 76/51/2
f 77/52/9 78/53/9 79/54/9
f 80/55/2 81/56/2 82/57/2
f 83/58/10 84/55/10 85/59/10
f 86/60/2 87/61/2 88/62/2
f 68/63/11 67/64/11 66/42/11
f 74/65/12 73/49/12 75/66/12
f 80/63/13 79/64/13 81/67/13
f 86/65/14 85/49/14 84/68/14
f 75/43/2 80/55/2 82/57/2
f 72/42/4 79/49/4 75/67/4
f 66/42/3 73/49/3 74/65/3
f 69/45/2 74/50/2 76/51/2
f 68/65/1 87/67/1 84/42/1
f 70/46/2 88/62/2 87/61/2
f 78/42/5 85/49/5 86/65/5
f 81/56/2 86/60/2 88/62/2
f 67/43/15 84/55/15 83/58/15
f 65/41/16 71/47/16 73/49/16
f 71/47/17 77/52/17 72/48/17
f 77/52/18 83/58/18 85/59/18
f 71/47/6 65/41/6 83/58/6
f 70/46/2 76/51/2 82/57/2
f 33/14/1 35/1/1 2/3/1
f 8/35/2 3/4/2 5/6/2
f 37/13/3 33/7/3 6/9/3
f 16/31/2 11/10/2 13/12/2
f 10/8/4 14/9/4 42/13/4
f 20/2/4 18/3/4 44/14/4
f 24/30/2 19/15/2 21/17/2
f 47/13/5 44/7/5 22/9/5
f 49/14/5 51/1/5 26/3/5
f 32/29/2 27/18/2 29/20/2
f 1/33/1 3/21/1 34/23/1
f 34/23/1 36/22/1 33/14/1
f 5/27/3 1/24/3 38/26/3
f 38/26/3 34/25/3 37/13/3
f 9/33/3 11/21/3 40/23/3
f 40/25/4 43/26/4 13/27/4
f 39/7/4 42/13/4 43/26/4
f 55/26/1 50/25/1 64/13/1
f 56/39/3 64/13/3 31/28/3
f 21/27/5 17/24/5 48/26/5
f 48/26/5 45/25/5 47/13/5
f 60/30/2 57/29/2 41/17/2
f 64/13/1 49/7/1 30/9/1
f 42/13/4 46/1/4 53/22/4
f 46/12/6 42/15/6 63/31/6
f 24/38/1 21/27/1 52/32/1
f 46/1/4 44/14/4 45/23/4
f 58/17/6 37/18/6 59/30/6
f 53/22/4 45/23/4 17/33/4
f 64/13/1 35/1/1 55/26/1
f 52/36/3 53/22/3 24/34/3
f 56/35/6 61/29/6 64/4/6
f 55/4/2 36/20/2 62/35/2
f 56/35/6 63/31/6 61/29/6
f 27/21/4 32/34/4 62/36/4
f 32/38/3 29/27/3 62/32/3
f 7/40/5 4/2/5 61/37/5
f 39/14/3 58/1/3 10/3/3
f 59/39/5 42/13/5 15/28/5
f 60/36/1 41/22/1 16/34/1
f 63/39/1 47/13/1 23/28/1
f 48/10/2 54/6/2 52/31/2
f 38/26/4 57/32/4 8/38/4
f 54/22/5 48/26/5 47/13/5
f 40/23/3 41/22/3 39/14/3
f 16/38/5 13/27/5 60/32/5
f 52/31/2 60/30/2 53/12/2
f 15/40/1 12/2/1 59/37/1
f 57/36/5 36/22/5 8/34/5
f 23/40/3 20/2/3 63/37/3
f 6/9/4 7/28/4 61/39/4
f 25/33/5 27/21/5 50/23/5
f 50/23/5 54/22/5 49/14/5
f 29/27/1 25/24/1 55/26/1
f 51/1/4 56/37/4 31/40/4
f 57/29/2 60/30/2 62/35/2
f 41/22/3 38/26/3 58/1/3
f 63/31/6 56/35/6 47/10/6
f 69/67/11 68/63/11 66/42/11
f 73/49/12 72/68/12 75/66/12
f 79/64/13 78/42/13 81/67/13
f 87/66/14 86/65/14 84/68/14
f 76/51/2 75/43/2 82/57/2
f 79/49/4 80/65/4 75/67/4
f 69/67/3 66/42/3 74/65/3
f 70/46/2 69/45/2 76/51/2
f 67/49/1 68/65/1 84/42/1
f 68/44/2 70/46/2 87/61/2
f 81/67/5 78/42/5 86/65/5
f 82/57/2 81/56/2 88/62/2
f 65/41/15 67/43/15 83/58/15
f 66/42/16 65/41/16 73/49/16
f 77/52/17 79/54/17 72/48/17
f 78/53/18 77/52/18 85/59/18
f 77/52/6 71/47/6 83/58/6
f 88/62/2 70/46/2 82/57/2
