# Blender v2.67 (sub 0) OBJ File: 'researchTable.blend'
# www.blender.org

v 7.500000 0.000000 -0.500000
v 7.500000 5.000000 -0.500000
v 8.000000 5.000000 -2.000000
v 7.500000 0.000000 -1.000000
v 7.500000 5.000000 -1.000000
v 6.000000 5.000000 0.000000
v 7.000000 0.000000 -0.500000
v 7.000000 5.000000 -0.500000
v 7.000000 5.000000 -1.000000
v 6.000000 6.000000 -2.000000
v 7.000000 0.000000 -1.000000
v 6.000000 5.000000 -2.000000
v 0.500000 0.000000 -0.500000
v 0.500000 5.000000 -0.500000
v 2.000000 5.000000 0.000000
v 1.000000 0.000000 -0.500000
v 1.000000 5.000000 -0.500000
v 0.000000 5.000000 -2.000000
v 0.500000 0.000000 -1.000000
v 0.500000 5.000000 -1.000000
v 1.000000 5.000000 -1.000000
v 2.000000 6.000000 -2.000000
v 1.000000 0.000000 -1.000000
v 2.000000 5.000000 -2.000000
v 0.500000 0.000000 -7.500000
v 0.500000 5.000000 -7.500000
v 0.000000 5.000000 -6.000000
v 0.500000 0.000000 -7.000000
v 0.500000 5.000000 -7.000000
v 2.000000 5.000000 -8.000000
v 1.000000 0.000000 -7.500000
v 1.000000 5.000000 -7.500000
v 1.000000 5.000000 -7.000000
v 2.000000 6.000000 -6.000000
v 1.000000 0.000000 -7.000000
v 2.000000 5.000000 -6.000000
v 7.500000 0.000000 -7.500000
v 7.500000 5.000000 -7.500000
v 6.000000 5.000000 -8.000000
v 7.000000 0.000000 -7.500000
v 7.000000 5.000000 -7.500000
v 8.000000 5.000000 -6.000000
v 7.500000 0.000000 -7.000000
v 7.500000 5.000000 -7.000000
v 7.000000 5.000000 -7.000000
v 6.000000 6.000000 -6.000000
v 7.000000 0.000000 -7.000000
v 6.000000 5.000000 -6.000000
v 7.500000 3.500000 -0.500000
v 7.500000 3.000000 -0.500000
v 7.500000 3.500000 -1.000000
v 7.500000 3.000000 -1.000000
v 7.000000 3.500000 -0.500000
v 7.000000 3.000000 -0.500000
v 0.500000 3.500000 -0.500000
v 0.500000 3.000000 -0.500000
v 1.000000 3.000000 -0.500000
v 0.500000 3.500000 -1.000000
v 0.500000 3.000000 -1.000000
v 0.500000 3.500000 -7.500000
v 0.500000 3.000000 -7.500000
v 0.500000 3.500000 -7.000000
v 1.000000 3.500000 -7.500000
v 1.000000 3.000000 -7.500000
v 7.500000 3.500000 -7.500000
v 7.500000 3.000000 -7.500000
v 7.000000 3.500000 -7.500000
v 1.000000 3.000000 -7.000000
v 0.500000 3.000000 -7.000000
v 6.621132 2.411279 -4.000001
v 7.000000 3.000000 -7.500000
v 7.500000 3.000000 -7.000000
v 7.000000 3.500000 -7.000000
v 7.000000 3.000000 -1.000000
v 1.000000 3.500000 -0.500000
v 1.000000 3.500000 -1.000000
v 1.000000 3.000000 -1.000000
v 7.000000 3.500000 -1.000000
v 7.000000 3.000000 -7.000000
v 1.000000 3.500000 -7.000000
v 7.500000 3.500000 -7.000000
v 7.750000 6.000000 -0.250000
v 7.750000 5.750000 0.000000
v 8.000000 5.750000 -0.250000
v 8.000000 5.000000 -0.250000
v 7.750000 5.000000 0.000000
v 7.750000 5.000000 -0.250000
v 7.750000 6.000000 -2.000000
v 8.000000 5.750000 -2.000000
v 6.000000 5.750000 0.000000
v 6.000000 6.000000 -0.250000
v 0.250000 6.000000 -0.250000
v 0.000000 5.750000 -0.250000
v 0.250000 5.750000 0.000000
v 0.250000 5.000000 0.000000
v 0.000000 5.000000 -0.250000
v 0.250000 5.000000 -0.250000
v 2.000000 6.000000 -0.250000
v 2.000000 5.750000 0.000000
v 0.000000 5.750000 -2.000000
v 0.250000 6.000000 -2.000000
v 0.250000 6.000000 -7.750000
v 0.250000 5.750000 -8.000000
v 0.000000 5.750000 -7.750000
v 0.000000 5.000000 -7.750000
v 0.250000 5.000000 -8.000000
v 0.250000 5.000000 -7.750000
v 0.250000 6.000000 -6.000000
v 0.000000 5.750000 -6.000000
v 2.000000 5.750000 -8.000000
v 2.000000 6.000000 -7.750000
v 7.750000 6.000000 -7.750000
v 8.000000 5.750000 -7.750000
v 7.750000 5.750000 -8.000000
v 7.750000 5.000000 -8.000000
v 8.000000 5.000000 -7.750000
v 7.750000 5.000000 -7.750000
v 6.000000 6.000000 -7.750000
v 6.000000 5.750000 -8.000000
v 8.000000 5.750000 -6.000000
v 7.750000 6.000000 -6.000000

vt 0.484375 0.625000
vt 0.375000 0.625000
vt 0.375000 0.515625
vt 0.984375 0.515625
vt 0.984375 0.500000
vt 0.968750 0.531250
vt 0.062500 0.359375
vt 0.062500 0.453125
vt 0.031250 0.453125
vt 0.484375 0.453125
vt 0.484375 0.500000
vt 0.375000 0.500000
vt 1.000000 0.625000
vt 1.000000 0.515625
vt 0.968750 0.562500
vt 0.125000 0.500000
vt 0.125000 0.453125
vt 0.968750 0.437500
vt 0.968750 0.468750
vt 0.937500 0.468750
vt 0.468750 0.359375
vt 0.468750 0.453125
vt 0.437500 0.453125
vt 0.937500 0.562500
vt 0.875000 0.625000
vt 0.875000 0.500000
vt 0.125000 0.515625
vt 0.125000 0.625000
vt 0.015625 0.625000
vt 0.515625 0.515625
vt 0.500000 0.515625
vt 0.531250 0.531250
vt 0.375000 0.453125
vt 0.625000 0.500000
vt 0.515625 0.500000
vt 0.562500 0.531250
vt 0.125000 0.875000
vt 0.015625 0.875000
vt 0.562500 0.468750
vt 0.531250 0.468750
vt 0.531250 0.437500
vt 0.437500 0.359375
vt 0.562500 0.562500
vt 0.625000 0.625000
vt 0.500000 0.625000
vt 0.125000 0.984375
vt 0.515625 0.984375
vt 0.515625 1.000000
vt 0.531250 0.968750
vt 0.031250 0.359375
vt 0.500000 0.875000
vt 0.500000 0.984375
vt 0.531250 0.937500
vt 0.375000 0.875000
vt 0.375000 0.984375
vt 0.531250 0.062500
vt 0.531250 0.031250
vt 0.562500 0.031250
vt 0.562500 0.937500
vt 0.625000 0.875000
vt 0.625000 1.000000
vt 0.484375 0.875000
vt 0.984375 0.984375
vt 1.000000 0.984375
vt 0.968750 0.968750
vt 0.875000 1.000000
vt 0.984375 1.000000
vt 0.937500 0.968750
vt 0.937500 0.031250
vt 0.968750 0.031250
vt 0.968750 0.062500
vt 0.937500 0.937500
vt 0.875000 0.875000
vt 1.000000 0.875000
vt 0.015625 0.500000
vt 0.015625 0.453125
vt 0.062500 0.140625
vt 0.062500 0.328125
vt 0.031250 0.328125
vt 0.468750 0.140625
vt 0.468750 0.328125
vt 0.437500 0.328125
vt 0.437500 0.140625
vt 0.406250 0.453125
vt 0.937500 0.062500
vt 0.562500 0.062500
vt 0.562500 0.437500
vt 0.406250 0.328125
vt 0.031250 0.140625
vt 0.093750 0.140625
vt 0.937500 0.437500
vt 0.093750 0.328125
vt 0.093750 0.359375
vt 0.406250 0.140625
vt 0.406250 0.359375
vt 0.093750 0.453125
vt 0.484375 0.515625
vt 0.015625 0.515625
vt 0.000000 0.515625
vt 0.015625 0.984375
vt 0.015625 1.000000
vt 0.000000 0.984375
vt 0.484375 0.984375
vt 0.484375 1.000000
vt 0.500000 0.453125
vt 0.500000 0.500000
vt 0.000000 0.453125
vt 0.000000 0.625000
vt 0.000000 0.875000
vt 0.125000 1.000000
vt 0.000000 0.500000
vt 0.375000 1.000000
vt 0.937500 0.531250
vt 0.531250 0.562500
vt 0.562500 0.968750
vt 0.968750 0.937500

vn -0.000000 1.000000 0.000000
vn 0.000000 -1.000000 0.000000
vn 1.000000 0.000000 0.000000
vn -0.000000 0.000000 1.000000
vn -1.000000 0.000000 0.000000
vn -0.000000 -0.000000 -1.000000
vn 0.577350 0.577350 0.577350
vn -0.577350 0.577350 0.577350
vn -0.577350 0.577350 -0.577350
vn 0.577350 0.577350 -0.577350
vn 0.707107 0.000000 0.707107
vn 0.707107 0.707107 0.000000
vn 0.000000 0.707107 0.707107
vn -0.707107 0.000000 0.707107
vn -0.707107 0.707107 0.000000
vn -0.707107 -0.000000 -0.707107
vn 0.000000 0.707107 -0.707107
vn 0.707107 0.000000 -0.707107

g Table
f 88/1/1 10/2/1 91/3/1
f 87/4/2 86/5/2 2/6/2
f 51/7/3 5/8/3 2/9/3
f 86/10/4 83/11/4 90/12/4
f 3/13/2 85/14/2 5/15/2
f 120/12/3 89/16/3 3/17/3
f 4/18/2 1/19/2 7/20/2
f 49/21/4 2/22/4 8/23/4
f 9/24/2 12/25/2 3/13/2
f 6/26/2 12/25/2 9/24/2
f 98/27/1 22/28/1 101/29/1
f 97/30/2 96/31/2 14/32/2
f 96/10/5 93/11/5 18/33/5
f 15/34/2 95/35/2 17/36/2
f 22/28/1 34/37/1 108/38/1
f 16/39/2 13/40/2 19/41/2
f 55/21/5 14/22/5 58/42/5
f 21/43/2 24/44/2 15/34/2
f 18/45/2 24/44/2 21/43/2
f 108/38/1 34/37/1 111/46/1
f 107/47/2 106/48/2 26/49/2
f 62/7/5 29/8/5 60/50/5
f 106/10/6 103/11/6 110/12/6
f 27/51/2 105/52/2 29/53/2
f 34/37/1 46/54/1 118/55/1
f 28/56/2 25/57/2 31/58/2
f 60/21/6 26/22/6 32/23/6
f 33/59/2 36/60/2 27/51/2
f 30/61/2 36/60/2 33/59/2
f 118/55/1 46/54/1 121/62/1
f 117/63/2 116/64/2 38/65/2
f 67/7/6 41/8/6 38/9/6
f 116/10/3 113/11/3 120/12/3
f 39/66/2 115/67/2 41/68/2
f 40/69/2 37/70/2 43/71/2
f 45/72/2 48/73/2 39/66/2
f 42/74/2 48/73/2 45/72/2
f 6/26/2 15/34/2 24/44/2
f 12/25/2 48/73/2 42/74/2
f 30/61/2 39/66/2 48/73/2
f 18/45/2 27/51/2 36/60/2
f 48/73/2 12/25/2 24/44/2
f 110/12/6 119/16/6 39/17/6
f 39/17/6 119/16/6 114/75/6
f 46/54/1 10/2/1 88/1/1
f 10/2/1 22/28/1 98/27/1
f 90/12/4 99/16/4 15/17/4
f 15/17/4 99/16/4 94/75/4
f 100/12/5 109/16/5 18/33/5
f 27/17/5 109/16/5 105/76/5
f 34/37/1 22/28/1 10/2/1
f 4/77/3 52/78/3 50/79/3
f 52/78/3 51/7/3 49/50/3
f 1/80/4 50/81/4 54/82/4
f 50/81/4 49/21/4 53/42/4
f 16/77/4 57/78/4 56/79/4
f 13/80/5 56/81/5 19/83/5
f 56/81/5 55/21/5 59/82/5
f 66/81/3 65/21/3 81/42/3
f 81/42/4 44/23/4 45/84/4
f 25/80/6 61/81/6 64/82/6
f 61/81/6 60/21/6 63/42/6
f 74/85/2 54/69/2 57/58/2
f 65/21/3 38/22/3 44/23/3
f 59/82/5 58/42/5 69/78/5
f 58/56/1 76/86/1 80/87/1
f 31/83/3 64/82/3 68/88/3
f 69/78/5 62/7/5 61/79/5
f 53/69/1 78/85/1 76/86/1
f 28/77/5 69/78/5 25/89/5
f 51/7/3 52/78/3 72/82/3
f 69/78/4 28/77/4 35/90/4
f 78/85/1 51/71/1 81/18/1
f 52/71/2 74/85/2 79/91/2
f 80/87/1 76/86/1 78/85/1
f 71/78/5 40/77/5 79/92/5
f 43/83/4 72/82/4 79/88/4
f 5/8/6 51/7/6 78/93/6
f 75/7/4 17/8/4 14/9/4
f 58/42/6 20/23/6 21/84/6
f 57/78/3 16/77/3 23/90/3
f 63/42/3 32/23/3 33/84/3
f 71/20/2 79/91/2 68/87/2
f 7/83/5 54/82/5 11/94/5
f 67/7/6 71/78/6 63/42/6
f 57/78/4 75/7/4 55/50/4
f 19/83/6 59/82/6 77/88/6
f 77/86/2 59/56/2 69/41/2
f 17/8/3 75/7/3 76/93/3
f 52/78/6 4/77/6 11/90/6
f 29/8/4 62/7/4 80/93/4
f 53/42/5 8/23/5 78/95/5
f 40/77/6 71/78/6 66/79/6
f 71/78/6 67/7/6 65/50/6
f 37/80/3 66/81/3 72/82/3
f 41/8/5 67/7/5 45/96/5
f 77/86/2 68/87/2 79/91/2
f 54/82/4 53/42/4 75/7/4
f 73/91/1 67/20/1 63/39/1
f 82/97/7 83/11/7 84/31/7
f 85/14/2 86/5/2 87/4/2
f 92/98/8 93/99/8 94/75/8
f 95/35/2 96/31/2 97/30/2
f 102/100/9 103/101/9 104/102/9
f 105/52/2 106/48/2 107/47/2
f 112/103/10 113/52/10 114/104/10
f 115/67/2 116/64/2 117/63/2
f 85/105/11 84/106/11 83/11/11
f 88/1/12 82/97/12 84/31/12
f 90/12/13 83/11/13 82/97/13
f 95/76/14 94/75/14 96/107/14
f 98/27/13 92/98/13 94/75/13
f 100/108/15 93/99/15 101/29/15
f 105/105/16 104/106/16 106/10/16
f 108/38/15 102/100/15 109/109/15
f 110/110/17 103/101/17 102/100/17
f 115/76/18 114/75/18 113/111/18
f 118/55/17 112/103/17 114/104/17
f 120/51/12 113/52/12 112/103/12
f 111/46/17 118/55/17 119/112/17
f 89/45/12 120/51/12 121/62/12
f 91/3/13 98/27/13 99/16/13
f 101/29/15 108/38/15 100/108/15
f 3/17/3 89/16/3 84/75/3
f 82/97/1 88/1/1 91/3/1
f 86/5/2 6/26/2 8/113/2
f 2/6/2 86/5/2 8/113/2
f 49/50/3 51/7/3 2/9/3
f 6/33/4 86/10/4 90/12/4
f 85/14/2 87/4/2 2/6/2
f 5/15/2 85/14/2 2/6/2
f 42/33/3 120/12/3 3/17/3
f 11/91/2 4/18/2 7/20/2
f 53/42/4 49/21/4 8/23/4
f 5/15/2 9/24/2 3/13/2
f 8/113/2 6/26/2 9/24/2
f 92/98/1 98/27/1 101/29/1
f 96/31/2 18/45/2 20/114/2
f 14/32/2 96/31/2 20/114/2
f 93/11/5 100/12/5 18/33/5
f 95/35/2 97/30/2 14/32/2
f 17/36/2 95/35/2 14/32/2
f 101/29/1 22/28/1 108/38/1
f 23/87/2 16/39/2 19/41/2
f 14/22/5 20/23/5 58/42/5
f 17/36/2 21/43/2 15/34/2
f 20/114/2 18/45/2 21/43/2
f 102/100/1 108/38/1 111/46/1
f 106/48/2 30/61/2 32/115/2
f 26/49/2 106/48/2 32/115/2
f 29/8/5 26/9/5 60/50/5
f 30/33/6 106/10/6 110/12/6
f 105/52/2 107/47/2 26/49/2
f 29/53/2 105/52/2 26/49/2
f 111/46/1 34/37/1 118/55/1
f 35/86/2 28/56/2 31/58/2
f 63/42/6 60/21/6 32/23/6
f 29/53/2 33/59/2 27/51/2
f 32/115/2 30/61/2 33/59/2
f 112/103/1 118/55/1 121/62/1
f 116/64/2 42/74/2 44/116/2
f 38/65/2 116/64/2 44/116/2
f 65/50/6 67/7/6 38/9/6
f 42/33/3 116/10/3 120/12/3
f 115/67/2 117/63/2 38/65/2
f 41/68/2 115/67/2 38/65/2
f 47/85/2 40/69/2 43/71/2
f 41/68/2 45/72/2 39/66/2
f 44/116/2 42/74/2 45/72/2
f 12/25/2 6/26/2 24/44/2
f 3/13/2 12/25/2 42/74/2
f 36/60/2 30/61/2 48/73/2
f 24/44/2 18/45/2 36/60/2
f 36/60/2 48/73/2 24/44/2
f 30/33/6 110/12/6 39/17/6
f 115/76/6 39/17/6 114/75/6
f 121/62/1 46/54/1 88/1/1
f 91/3/1 10/2/1 98/27/1
f 6/33/4 90/12/4 15/17/4
f 95/76/4 15/17/4 94/75/4
f 109/16/5 27/17/5 18/33/5
f 109/16/5 104/75/5 105/76/5
f 46/54/1 34/37/1 10/2/1
f 1/89/3 4/77/3 50/79/3
f 50/79/3 52/78/3 49/50/3
f 7/83/4 1/80/4 54/82/4
f 54/82/4 50/81/4 53/42/4
f 13/89/4 16/77/4 56/79/4
f 56/81/5 59/82/5 19/83/5
f 55/21/5 58/42/5 59/82/5
f 72/82/3 66/81/3 81/42/3
f 73/95/4 81/42/4 45/84/4
f 31/83/6 25/80/6 64/82/6
f 64/82/6 61/81/6 63/42/6
f 77/86/2 74/85/2 57/58/2
f 81/42/3 65/21/3 44/23/3
f 58/42/5 62/7/5 69/78/5
f 62/41/1 58/56/1 80/87/1
f 35/94/3 31/83/3 68/88/3
f 62/7/5 60/50/5 61/79/5
f 75/58/1 53/69/1 76/86/1
f 69/78/5 61/79/5 25/89/5
f 81/42/3 51/7/3 72/82/3
f 68/92/4 69/78/4 35/90/4
f 73/91/1 78/85/1 81/18/1
f 72/18/2 52/71/2 79/91/2
f 73/91/1 80/87/1 78/85/1
f 40/77/5 47/90/5 79/92/5
f 47/94/4 43/83/4 79/88/4
f 9/96/6 5/8/6 78/93/6
f 55/50/4 75/7/4 14/9/4
f 76/95/6 58/42/6 21/84/6
f 77/92/3 57/78/3 23/90/3
f 80/95/3 63/42/3 33/84/3
f 64/39/2 71/20/2 68/87/2
f 54/82/5 74/88/5 11/94/5
f 71/78/6 64/82/6 63/42/6
f 56/79/4 57/78/4 55/50/4
f 23/94/6 19/83/6 77/88/6
f 68/87/2 77/86/2 69/41/2
f 21/96/3 17/8/3 76/93/3
f 74/92/6 52/78/6 11/90/6
f 33/96/4 29/8/4 80/93/4
f 8/23/5 9/84/5 78/95/5
f 37/89/6 40/77/6 66/79/6
f 66/79/6 71/78/6 65/50/6
f 43/83/3 37/80/3 72/82/3
f 67/7/5 73/93/5 45/96/5
f 74/85/2 77/86/2 79/91/2
f 57/78/4 54/82/4 75/7/4
f 80/87/1 73/91/1 63/39/1
f 86/10/11 85/105/11 83/11/11
f 89/45/12 88/1/12 84/31/12
f 91/3/13 90/12/13 82/97/13
f 94/75/14 93/111/14 96/107/14
f 99/16/13 98/27/13 94/75/13
f 93/99/15 92/98/15 101/29/15
f 104/106/16 103/11/16 106/10/16
f 102/100/15 104/102/15 109/109/15
f 111/46/17 110/110/17 102/100/17
f 116/107/18 115/76/18 113/111/18
f 119/112/17 118/55/17 114/104/17
f 121/62/12 120/51/12 112/103/12
f 110/110/17 111/46/17 119/112/17
f 88/1/12 89/45/12 121/62/12
f 90/12/13 91/3/13 99/16/13
f 108/38/15 109/109/15 100/108/15
f 85/76/3 3/17/3 84/75/3
